<svg width="16" height="15" viewBox="0 0 16 15" fill="none" xmlns="http://www.w3.org/2000/svg">
<path d="M11.3333 8.83335C11.7015 8.83335 12 8.53488 12 8.16669C12 7.7985 11.7015 7.50002 11.3333 7.50002C10.9651 7.50002 10.6666 7.7985 10.6666 8.16669C10.6666 8.53488 10.9651 8.83335 11.3333 8.83335Z" fill="#6F767E"/>
<path d="M11.3333 11.5C11.7015 11.5 12 11.2015 12 10.8334C12 10.4652 11.7015 10.1667 11.3333 10.1667C10.9651 10.1667 10.6666 10.4652 10.6666 10.8334C10.6666 11.2015 10.9651 11.5 11.3333 11.5Z" fill="#6F767E"/>
<path d="M8.66665 8.16669C8.66665 8.53488 8.36817 8.83335 7.99998 8.83335C7.63179 8.83335 7.33331 8.53488 7.33331 8.16669C7.33331 7.7985 7.63179 7.50002 7.99998 7.50002C8.36817 7.50002 8.66665 7.7985 8.66665 8.16669Z" fill="#6F767E"/>
<path d="M8.66665 10.8334C8.66665 11.2015 8.36817 11.5 7.99998 11.5C7.63179 11.5 7.33331 11.2015 7.33331 10.8334C7.33331 10.4652 7.63179 10.1667 7.99998 10.1667C8.36817 10.1667 8.66665 10.4652 8.66665 10.8334Z" fill="#6F767E"/>
<path d="M4.66665 8.83335C5.03484 8.83335 5.33331 8.53488 5.33331 8.16669C5.33331 7.7985 5.03484 7.50002 4.66665 7.50002C4.29846 7.50002 3.99998 7.7985 3.99998 8.16669C3.99998 8.53488 4.29846 8.83335 4.66665 8.83335Z" fill="#6F767E"/>
<path d="M4.66665 11.5C5.03484 11.5 5.33331 11.2015 5.33331 10.8334C5.33331 10.4652 5.03484 10.1667 4.66665 10.1667C4.29846 10.1667 3.99998 10.4652 3.99998 10.8334C3.99998 11.2015 4.29846 11.5 4.66665 11.5Z" fill="#6F767E"/>
<path fill-rule="evenodd" clip-rule="evenodd" d="M4.66665 0.666687C4.94279 0.666687 5.16665 0.890545 5.16665 1.16669V1.67517C5.60798 1.66668 6.0942 1.66668 6.62895 1.66669H9.37092C9.90569 1.66668 10.392 1.66668 10.8333 1.67517V1.16669C10.8333 0.890545 11.0572 0.666687 11.3333 0.666687C11.6095 0.666687 11.8333 0.890545 11.8333 1.16669V1.71808C12.0066 1.73129 12.1707 1.7479 12.326 1.76878C13.1076 1.87386 13.7402 2.09527 14.2392 2.59418C14.7381 3.09309 14.9595 3.72572 15.0646 4.50734C15.1667 5.26681 15.1667 6.23722 15.1666 7.46238V8.87096C15.1667 10.0961 15.1667 11.0666 15.0646 11.826C14.9595 12.6077 14.7381 13.2403 14.2392 13.7392C13.7402 14.2381 13.1076 14.4595 12.326 14.5646C11.5665 14.6667 10.5961 14.6667 9.37095 14.6667H6.62904C5.40388 14.6667 4.43344 14.6667 3.67396 14.5646C2.89235 14.4595 2.25972 14.2381 1.76081 13.7392C1.2619 13.2403 1.04049 12.6077 0.935403 11.826C0.833294 11.0666 0.833303 10.0961 0.833313 8.87096V7.46241C0.833303 6.23724 0.833294 5.26681 0.935403 4.50734C1.04049 3.72572 1.2619 3.09309 1.76081 2.59418C2.25972 2.09527 2.89235 1.87386 3.67396 1.76878C3.82925 1.7479 3.99335 1.73129 4.16665 1.71808V1.16669C4.16665 0.890545 4.3905 0.666687 4.66665 0.666687ZM3.80721 2.75986C3.13649 2.85004 2.75006 3.01915 2.46792 3.30129C2.18578 3.58343 2.01666 3.96986 1.92649 4.64059C1.91121 4.75418 1.89845 4.87376 1.88777 5.00002H14.1122C14.1015 4.87376 14.0887 4.75418 14.0735 4.64059C13.9833 3.96986 13.8142 3.58343 13.532 3.30129C13.2499 3.01915 12.8635 2.85004 12.1927 2.75986C11.5076 2.66775 10.6045 2.66669 9.33331 2.66669H6.66665C5.39543 2.66669 4.49232 2.66775 3.80721 2.75986ZM1.83331 7.50002C1.83331 6.93068 1.83353 6.43517 1.84204 6.00002H14.1579C14.1664 6.43517 14.1666 6.93068 14.1666 7.50002V8.83335C14.1666 10.1046 14.1656 11.0077 14.0735 11.6928C13.9833 12.3635 13.8142 12.7499 13.532 13.0321C13.2499 13.3142 12.8635 13.4833 12.1927 13.5735C11.5076 13.6656 10.6045 13.6667 9.33331 13.6667H6.66665C5.39543 13.6667 4.49232 13.6656 3.80721 13.5735C3.13649 13.4833 2.75006 13.3142 2.46792 13.0321C2.18578 12.7499 2.01666 12.3635 1.92649 11.6928C1.83438 11.0077 1.83331 10.1046 1.83331 8.83335V7.50002Z" fill="#6F767E"/>
</svg>
