<svg width="19" height="18" viewBox="0 0 19 18" fill="none" xmlns="http://www.w3.org/2000/svg">
<path fill-rule="evenodd" clip-rule="evenodd" d="M5.8321 2.73888C6.05446 1.64732 7.02582 0.875 8.1387 0.875H10.8615C11.9743 0.875 12.9457 1.64732 13.1681 2.73888C13.2194 2.99087 13.4477 3.17571 13.6851 3.17571H13.6987L13.7124 3.17631C14.8819 3.22745 15.7802 3.37097 16.5302 3.86298C17.0027 4.17297 17.4092 4.57181 17.7259 5.0372C18.12 5.61622 18.2938 6.28079 18.3771 7.08454C18.4584 7.86983 18.4584 8.85417 18.4584 10.1009V10.1719C18.4584 11.4186 18.4584 12.4029 18.3771 13.1882C18.2938 13.9919 18.12 14.6565 17.7259 15.2355C17.4092 15.7009 17.0027 16.0998 16.5302 16.4097C15.944 16.7943 15.2719 16.9639 14.4568 17.0453C13.6587 17.125 12.6576 17.125 11.3863 17.125H7.61389C6.34257 17.125 5.34147 17.125 4.54338 17.0453C3.72824 16.9639 3.05618 16.7943 2.46995 16.4097C1.99743 16.0998 1.59096 15.7009 1.27424 15.2355C0.88018 14.6565 0.706378 13.9919 0.6231 13.1882C0.541735 12.4029 0.541741 11.4186 0.541748 10.1718V10.1009C0.541741 8.85417 0.541735 7.86983 0.6231 7.08454C0.706378 6.28079 0.88018 5.61622 1.27424 5.0372C1.59096 4.57181 1.99743 4.17297 2.46995 3.86298C3.21994 3.37097 4.11825 3.22745 5.28778 3.17631L5.30142 3.17571H5.31508C5.55248 3.17571 5.78077 2.99087 5.8321 2.73888ZM8.1387 2.125C7.60443 2.125 7.15763 2.49416 7.05695 2.98839C6.8939 3.78883 6.18425 4.41822 5.33036 4.42565C4.20652 4.47558 3.60455 4.61363 3.15561 4.90815C2.81933 5.12876 2.53134 5.41175 2.30763 5.74047C2.0775 6.07862 1.93921 6.51104 1.86644 7.21337C1.79253 7.92672 1.79175 8.84633 1.79175 10.1364C1.79175 11.4264 1.79253 12.346 1.86644 13.0594C1.93921 13.7617 2.0775 14.1941 2.30763 14.5323C2.53134 14.861 2.81933 15.144 3.15561 15.3646C3.50355 15.5928 3.94878 15.7297 4.66761 15.8015C5.39632 15.8743 6.33503 15.875 7.64823 15.875H11.3519C12.6651 15.875 13.6038 15.8743 14.3326 15.8015C15.0514 15.7297 15.4966 15.5928 15.8445 15.3646C16.1808 15.144 16.4688 14.861 16.6925 14.5323C16.9227 14.1941 17.061 13.7617 17.1337 13.0594C17.2076 12.346 17.2084 11.4264 17.2084 10.1364C17.2084 8.84633 17.2076 7.92672 17.1337 7.21337C17.061 6.51104 16.9227 6.07862 16.6925 5.74047C16.4688 5.41175 16.1808 5.12876 15.8445 4.90815C15.3956 4.61363 14.7936 4.47558 13.6698 4.42565C12.8159 4.41822 12.1063 3.78883 11.9432 2.98839C11.8425 2.49416 11.3957 2.125 10.8615 2.125H8.1387ZM9.50008 7.95833C8.46455 7.95833 7.62508 8.7978 7.62508 9.83333C7.62508 10.8689 8.46455 11.7083 9.50008 11.7083C10.5356 11.7083 11.3751 10.8689 11.3751 9.83333C11.3751 8.7978 10.5356 7.95833 9.50008 7.95833ZM6.37508 9.83333C6.37508 8.10744 7.77419 6.70833 9.50008 6.70833C11.226 6.70833 12.6251 8.10744 12.6251 9.83333C12.6251 11.5592 11.226 12.9583 9.50008 12.9583C7.77419 12.9583 6.37508 11.5592 6.37508 9.83333ZM13.8751 7.33333C13.8751 6.98816 14.1549 6.70833 14.5001 6.70833H15.3334C15.6786 6.70833 15.9584 6.98816 15.9584 7.33333C15.9584 7.67851 15.6786 7.95833 15.3334 7.95833H14.5001C14.1549 7.95833 13.8751 7.67851 13.8751 7.33333Z" fill="#1AAF74"/>
</svg>
