<svg width="12" height="11" viewBox="0 0 12 11" fill="none" xmlns="http://www.w3.org/2000/svg">
<path fill-rule="evenodd" clip-rule="evenodd" d="M0.80052 0.300581C0.979045 0.122056 1.26849 0.122056 1.44702 0.300581L5.99998 4.85354L10.5529 0.30062C10.7314 0.122095 11.0209 0.122095 11.1994 0.30062C11.3779 0.479146 11.3779 0.768593 11.1994 0.947118L6.64648 5.50004L11.1994 10.0529C11.3779 10.2314 11.3779 10.5209 11.1994 10.6994C11.0208 10.8779 10.7314 10.8779 10.5529 10.6994L5.99998 6.14654L1.44706 10.6995C1.26853 10.878 0.979087 10.878 0.800561 10.6995C0.622036 10.5209 0.622036 10.2315 0.800561 10.053L5.35348 5.50004L0.80052 0.947079C0.621995 0.768553 0.621995 0.479106 0.80052 0.300581Z" fill="#6F767E"/>
</svg>
